<?xml version="1.0" encoding="UTF-8" standalone="no"?>
<!-- Generated by IcoMoon.io -->

<svg
   xmlns:dc="http://purl.org/dc/elements/1.1/"
   xmlns:cc="http://creativecommons.org/ns#"
   xmlns:rdf="http://www.w3.org/1999/02/22-rdf-syntax-ns#"
   xmlns:svg="http://www.w3.org/2000/svg"
   xmlns="http://www.w3.org/2000/svg"
   xmlns:sodipodi="http://sodipodi.sourceforge.net/DTD/sodipodi-0.dtd"
   xmlns:inkscape="http://www.inkscape.org/namespaces/inkscape"
   version="1.1"
   width="34"
   height="34"
   viewBox="0 0 34 34"
   id="svg2"
   inkscape:version="0.48.4 r9939"
   sodipodi:docname="d-rotation.svg">
  <metadata
     id="metadata10">
    <rdf:RDF>
      <cc:Work
         rdf:about="">
        <dc:format>image/svg+xml</dc:format>
        <dc:type
           rdf:resource="http://purl.org/dc/dcmitype/StillImage" />
      </cc:Work>
    </rdf:RDF>
  </metadata>
  <defs
     id="defs8" />
  <sodipodi:namedview
     pagecolor="#ffffff"
     bordercolor="#666666"
     borderopacity="1"
     objecttolerance="10"
     gridtolerance="10"
     guidetolerance="10"
     inkscape:pageopacity="0"
     inkscape:pageshadow="2"
     inkscape:window-width="950"
     inkscape:window-height="595"
     id="namedview6"
     showgrid="false"
     fit-margin-top="2"
     fit-margin-left="2"
     fit-margin-right="2"
     fit-margin-bottom="2"
     inkscape:zoom="12.114286"
     inkscape:cx="16.345467"
     inkscape:cy="15.462264"
     inkscape:window-x="0"
     inkscape:window-y="23"
     inkscape:window-maximized="0"
     inkscape:current-layer="svg2" />
  <path
     d="M 11.370293,28.85625 C 7.2719665,26.91875 4.3284519,22.95 3.8828452,18.25 H 2 C 2.6401674,25.95 9.1046025,32 17,32 c 0.282427,0 0.552301,-0.025 0.828452,-0.04375 L 13.046025,27.1875 11.370293,28.85625 z M 12.487448,20.7 c -0.238494,0 -0.458159,-0.03125 -0.658996,-0.10625 C 11.633891,20.525 11.464435,20.425 11.32636,20.3 c -0.138075,-0.125 -0.24477,-0.28125 -0.320084,-0.45625 -0.07531,-0.18125 -0.112971,-0.375 -0.112971,-0.5875 H 9.2615063 c 0,0.45 0.087866,0.84375 0.2635983,1.1875 0.1757322,0.34375 0.4079498,0.63125 0.7029294,0.85625 0.294979,0.23125 0.633891,0.4 1.023012,0.51875 0.389121,0.125 0.790795,0.18125 1.217573,0.18125 0.464435,0 0.89749,-0.0625 1.299163,-0.1875 0.401674,-0.125 0.746862,-0.3125 1.041841,-0.55625 0.29498,-0.24375 0.520921,-0.54375 0.690377,-0.9 0.16318,-0.35625 0.251046,-0.7625 0.251046,-1.21875 0,-0.24375 -0.03138,-0.475 -0.08787,-0.7 C 15.600416,18.2125 15.506272,18 15.380749,17.8 15.24895,17.6 15.079494,17.425 14.872381,17.2625 14.665268,17.10625 14.407946,16.975 14.112967,16.86875 c 0.251046,-0.1125 0.470711,-0.25 0.658996,-0.4125 0.188284,-0.1625 0.345188,-0.3375 0.470711,-0.51875 0.125523,-0.1875 0.219665,-0.375 0.282427,-0.575 0.06276,-0.2 0.09414,-0.4 0.09414,-0.59375 0,-0.45625 -0.07531,-0.85625 -0.225942,-1.2 C 15.242678,13.225 15.029289,12.9375 14.753138,12.70625 14.476987,12.475 14.150628,12.3 13.761506,12.18125 13.359833,12.05625 12.933054,12 12.468619,12 c -0.451883,0 -0.872385,0.06875 -1.25523,0.2 -0.382845,0.13125 -0.709205,0.31875 -0.985355,0.55625 C 9.9518828,12.99375 9.7384937,13.275 9.58159,13.6 9.4246862,13.925 9.3493724,14.28125 9.3493724,14.6625 h 1.6317996 c 0,-0.2125 0.03766,-0.4 0.11297,-0.5625 0.07531,-0.16875 0.182009,-0.3125 0.313808,-0.425 0.131799,-0.11875 0.294979,-0.2125 0.476987,-0.275 0.182009,-0.0625 0.382845,-0.1 0.596235,-0.1 0.502092,0 0.872384,0.13125 1.117154,0.3875 0.24477,0.25625 0.364017,0.61875 0.364017,1.08125 0,0.225 -0.03138,0.425 -0.100418,0.60625 -0.06904,0.18125 -0.169456,0.3375 -0.307532,0.46875 -0.138075,0.13125 -0.313807,0.23125 -0.514644,0.30625 -0.207113,0.075 -0.451883,0.1125 -0.728034,0.1125 h -0.966527 v 1.28125 h 0.966527 c 0.276151,0 0.527197,0.03125 0.746862,0.09375 0.219666,0.0625 0.40795,0.15625 0.564854,0.29375 0.156904,0.13125 0.276151,0.3 0.364017,0.5 0.08159,0.2 0.125523,0.4375 0.125523,0.7125 0,0.50625 -0.144352,0.89375 -0.439331,1.1625 C 13.391213,20.56875 12.995816,20.7 12.487448,20.7 z m 10.74477,-7.40625 C 22.83682,12.88125 22.359833,12.5625 21.807531,12.3375 21.248954,12.1125 20.640167,12 19.968619,12 H 17 v 10 h 2.880753 c 0.696653,0 1.324268,-0.1125 1.895398,-0.3375 0.571129,-0.225 1.054393,-0.54375 1.456067,-0.95625 0.401673,-0.4125 0.715481,-0.9125 0.92887,-1.49375 0.219665,-0.58125 0.32636,-1.2375 0.32636,-1.9625 v -0.49375 c 0,-0.725 -0.112971,-1.375 -0.332636,-1.9625 -0.219666,-0.5875 -0.527197,-1.0875 -0.922594,-1.5 z m -0.495816,3.9625 c 0,0.51875 -0.05649,0.99375 -0.182009,1.40625 -0.119247,0.41875 -0.294979,0.76875 -0.533472,1.05625 -0.238494,0.2875 -0.533473,0.50625 -0.891214,0.6625 -0.35774,0.15 -0.771966,0.23125 -1.248954,0.23125 H 18.74477 V 13.4 h 1.223849 c 0.903766,0 1.587866,0.2875 2.064854,0.85625 0.470711,0.575 0.709205,1.4 0.709205,2.4875 v 0.5125 z M 17,2 C 16.717573,2 16.447699,2.025 16.171548,2.04375 L 20.953975,6.8125 22.623431,5.15 c 4.104602,1.93125 7.048117,5.9 7.493724,10.6 H 32 C 31.359833,8.05 24.895397,2 17,2 z"
     id="path6"
     inkscape:connector-curvature="0"
     style="fill:#ffffff;fill-opacity:1" />
</svg>
