<?xml version="1.0" encoding="UTF-8" standalone="no"?>
<!-- Generated by IcoMoon.io -->

<svg
   xmlns:dc="http://purl.org/dc/elements/1.1/"
   xmlns:cc="http://creativecommons.org/ns#"
   xmlns:rdf="http://www.w3.org/1999/02/22-rdf-syntax-ns#"
   xmlns:svg="http://www.w3.org/2000/svg"
   xmlns="http://www.w3.org/2000/svg"
   xmlns:sodipodi="http://sodipodi.sourceforge.net/DTD/sodipodi-0.dtd"
   xmlns:inkscape="http://www.inkscape.org/namespaces/inkscape"
   version="1.1"
   width="34"
   height="34"
   viewBox="0 0 34 34"
   id="svg2"
   inkscape:version="0.48.4 r9939"
   sodipodi:docname="add-circle.svg">
  <metadata
     id="metadata10">
    <rdf:RDF>
      <cc:Work
         rdf:about="">
        <dc:format>image/svg+xml</dc:format>
        <dc:type
           rdf:resource="http://purl.org/dc/dcmitype/StillImage" />
      </cc:Work>
    </rdf:RDF>
  </metadata>
  <defs
     id="defs8" />
  <sodipodi:namedview
     pagecolor="#ffffff"
     bordercolor="#666666"
     borderopacity="1"
     objecttolerance="10"
     gridtolerance="10"
     guidetolerance="10"
     inkscape:pageopacity="0"
     inkscape:pageshadow="2"
     inkscape:window-width="950"
     inkscape:window-height="595"
     id="namedview6"
     showgrid="false"
     fit-margin-top="2"
     fit-margin-left="2"
     fit-margin-right="2"
     fit-margin-bottom="2"
     inkscape:zoom="12.114286"
     inkscape:cx="17"
     inkscape:cy="19.5"
     inkscape:window-x="0"
     inkscape:window-y="23"
     inkscape:window-maximized="0"
     inkscape:current-layer="svg2" />
<path d="M12 2c-5.525 0-10 4.475-10 10s4.475 10 10 10 10-4.475 10-10-4.475-10-10-10zM11 19.93c-3.945-0.49-7-3.85-7-7.93 0-0.615 0.075-1.215 0.21-1.79l4.79 4.79v1c0 1.105 0.895 2 2 2v1.93zM17.895 17.395c-0.255-0.81-1.005-1.395-1.895-1.395h-1v-3c0-0.55-0.45-1-1-1h-6v-2h2c0.55 0 1-0.45 1-1v-2h2c1.105 0 2-0.895 2-2v-0.415c2.93 1.185 5 4.055 5 7.415 0 2.080-0.8 3.97-2.105 5.395z" fill="#444444"></path>
</svg>
