<?xml version="1.0" encoding="UTF-8" standalone="no"?>
<!-- Generated by IcoMoon.io -->

<svg
   xmlns:dc="http://purl.org/dc/elements/1.1/"
   xmlns:cc="http://creativecommons.org/ns#"
   xmlns:rdf="http://www.w3.org/1999/02/22-rdf-syntax-ns#"
   xmlns:svg="http://www.w3.org/2000/svg"
   xmlns="http://www.w3.org/2000/svg"
   xmlns:sodipodi="http://sodipodi.sourceforge.net/DTD/sodipodi-0.dtd"
   xmlns:inkscape="http://www.inkscape.org/namespaces/inkscape"
   version="1.1"
   width="34"
   height="34"
   viewBox="0 0 34 34"
   id="svg2"
   inkscape:version="0.48.4 r9939"
   sodipodi:docname="add-circle.svg">
  <metadata
     id="metadata10">
    <rdf:RDF>
      <cc:Work
         rdf:about="">
        <dc:format>image/svg+xml</dc:format>
        <dc:type
           rdf:resource="http://purl.org/dc/dcmitype/StillImage" />
      </cc:Work>
    </rdf:RDF>
  </metadata>
  <defs
     id="defs8" />
  <sodipodi:namedview
     pagecolor="#ffffff"
     bordercolor="#666666"
     borderopacity="1"
     objecttolerance="10"
     gridtolerance="10"
     guidetolerance="10"
     inkscape:pageopacity="0"
     inkscape:pageshadow="2"
     inkscape:window-width="950"
     inkscape:window-height="595"
     id="namedview6"
     showgrid="false"
     fit-margin-top="2"
     fit-margin-left="2"
     fit-margin-right="2"
     fit-margin-bottom="2"
     inkscape:zoom="12.114286"
     inkscape:cx="17"
     inkscape:cy="19.5"
     inkscape:window-x="0"
     inkscape:window-y="23"
     inkscape:window-maximized="0"
     inkscape:current-layer="svg2" />
<path d="M19.43 12.975c0.040-0.32 0.070-0.645 0.070-0.975s-0.030-0.655-0.070-0.975l2.115-1.655c0.19-0.15 0.245-0.42 0.12-0.64l-2-3.465c-0.125-0.215-0.385-0.305-0.61-0.215l-2.49 1.005c-0.515-0.395-1.080-0.73-1.69-0.985l-0.375-2.65c-0.045-0.235-0.25-0.42-0.5-0.42h-4c-0.25 0-0.455 0.185-0.495 0.42l-0.375 2.65c-0.61 0.255-1.175 0.585-1.69 0.985l-2.49-1.005c-0.225-0.085-0.485 0-0.61 0.215l-2 3.465c-0.125 0.215-0.070 0.485 0.12 0.64l2.11 1.655c-0.040 0.32-0.070 0.645-0.070 0.975s0.030 0.655 0.070 0.975l-2.11 1.655c-0.19 0.15-0.245 0.42-0.12 0.64l2 3.465c0.125 0.215 0.385 0.305 0.61 0.215l2.49-1.005c0.515 0.395 1.080 0.73 1.69 0.985l0.375 2.65c0.040 0.235 0.245 0.42 0.495 0.42h4c0.25 0 0.455-0.185 0.495-0.42l0.375-2.65c0.61-0.255 1.175-0.585 1.69-0.985l2.49 1.005c0.225 0.085 0.485 0 0.61-0.215l2-3.465c0.125-0.215 0.070-0.485-0.12-0.64l-2.11-1.655zM12 15.5c-1.935 0-3.5-1.565-3.5-3.5s1.565-3.5 3.5-3.5 3.5 1.565 3.5 3.5-1.565 3.5-3.5 3.5z" fill="#444444"></path>
</svg>
