<?xml version="1.0" encoding="UTF-8" standalone="no"?>
<!-- Generated by IcoMoon.io -->

<svg
   xmlns:dc="http://purl.org/dc/elements/1.1/"
   xmlns:cc="http://creativecommons.org/ns#"
   xmlns:rdf="http://www.w3.org/1999/02/22-rdf-syntax-ns#"
   xmlns:svg="http://www.w3.org/2000/svg"
   xmlns="http://www.w3.org/2000/svg"
   xmlns:sodipodi="http://sodipodi.sourceforge.net/DTD/sodipodi-0.dtd"
   xmlns:inkscape="http://www.inkscape.org/namespaces/inkscape"
   version="1.1"
   width="34"
   height="34"
   viewBox="0 0 34 34"
   id="svg2"
   inkscape:version="0.48.4 r9939"
   sodipodi:docname="add-circle.svg">
  <metadata
     id="metadata10">
    <rdf:RDF>
      <cc:Work
         rdf:about="">
        <dc:format>image/svg+xml</dc:format>
        <dc:type
           rdf:resource="http://purl.org/dc/dcmitype/StillImage" />
      </cc:Work>
    </rdf:RDF>
  </metadata>
  <defs
     id="defs8" />
  <sodipodi:namedview
     pagecolor="#ffffff"
     bordercolor="#666666"
     borderopacity="1"
     objecttolerance="10"
     gridtolerance="10"
     guidetolerance="10"
     inkscape:pageopacity="0"
     inkscape:pageshadow="2"
     inkscape:window-width="950"
     inkscape:window-height="595"
     id="namedview6"
     showgrid="false"
     fit-margin-top="2"
     fit-margin-left="2"
     fit-margin-right="2"
     fit-margin-bottom="2"
     inkscape:zoom="12.114286"
     inkscape:cx="17"
     inkscape:cy="19.5"
     inkscape:window-x="0"
     inkscape:window-y="23"
     inkscape:window-maximized="0"
     inkscape:current-layer="svg2" />
<path d="M16.5 12c0-1.765-1.020-3.29-2.5-4.025v2.21l2.455 2.455c0.030-0.21 0.045-0.425 0.045-0.64zM19 12c0 0.94-0.205 1.825-0.54 2.64l1.515 1.515c0.65-1.245 1.025-2.655 1.025-4.155 0-4.28-2.995-7.86-7-8.77v2.065c2.89 0.86 5 3.535 5 6.705zM4.275 3l-1.275 1.275 4.725 4.725h-4.725v6h4l5 5v-6.725l4.255 4.255c-0.67 0.515-1.425 0.93-2.255 1.18v2.065c1.375-0.315 2.63-0.945 3.685-1.81l2.040 2.035 1.275-1.275-16.725-16.725zM12 4l-2.090 2.090 2.090 2.090v-4.18z" fill="#444444"></path>
</svg>
